<svg width="800" height="800" 
  stroke="currentColor"
viewBox="0 0 24 24" fill="none" xmlns="http://www.w3.org/2000/svg"><path d="M5.5 8a2.5 2.5 0 1 0 0-5 2.5 2.5 0 0 0 0 5Zm0 0v8m0 0a2.5 2.5 0 1 0 0 5 2.5 2.5 0 0 0 0-5Zm13-8a2.5 2.5 0 1 0 0-5 2.5 2.5 0 0 0 0 5Zm0 0c0 .93 0 1.395-.102 1.776a3 3 0 0 1-2.122 2.122C15.895 12 15.43 12 14.5 12h-6a3 3 0 0 0-3 3"  
stroke-width="2" stroke-linecap="round" stroke-linejoin="round"/>
    <style>
        svg { color: #000; }
        @media (prefers-color-scheme: dark) {
            svg { color: #FFF; }
        }
    </style>
</svg>